<mxfile host="app.diagrams.net" agent="Mozilla/5.0 (Windows NT 10.0; Win64; x64) AppleWebKit/537.36 (KHTML, like Gecko) Chrome/132.0.0.0 YaBrowser/25.2.0.0 Safari/537.36" version="26.0.15">
  <diagram name="Страница — 1" id="pK8GdqSDEVaHA4ka9reQ">
    <mxGraphModel dx="989" dy="546" grid="1" gridSize="10" guides="1" tooltips="1" connect="1" arrows="1" fold="1" page="1" pageScale="1" pageWidth="827" pageHeight="1169" math="0" shadow="0">
      <root>
        <mxCell id="0" />
        <mxCell id="1" parent="0" />
        <mxCell id="5WrMtEPQ9WSay22F0Exm-2" style="edgeStyle=orthogonalEdgeStyle;rounded=0;orthogonalLoop=1;jettySize=auto;html=1;entryX=0;entryY=0.5;entryDx=0;entryDy=0;curved=1;fillColor=#fff2cc;strokeColor=#d6b656;" edge="1" parent="1" source="5WrMtEPQ9WSay22F0Exm-1" target="5WrMtEPQ9WSay22F0Exm-4">
          <mxGeometry relative="1" as="geometry">
            <mxPoint x="310" y="235" as="targetPoint" />
          </mxGeometry>
        </mxCell>
        <mxCell id="5WrMtEPQ9WSay22F0Exm-1" value="Пользователь" style="html=1;whiteSpace=wrap;fillColor=#fff2cc;strokeColor=#d6b656;" vertex="1" parent="1">
          <mxGeometry x="70" y="140" width="110" height="50" as="geometry" />
        </mxCell>
        <mxCell id="5WrMtEPQ9WSay22F0Exm-4" value="Кайфават" style="html=1;whiteSpace=wrap;" vertex="1" parent="1">
          <mxGeometry x="265" y="140" width="110" height="50" as="geometry" />
        </mxCell>
        <mxCell id="5WrMtEPQ9WSay22F0Exm-10" style="edgeStyle=orthogonalEdgeStyle;rounded=0;orthogonalLoop=1;jettySize=auto;html=1;exitX=1;exitY=0.5;exitDx=0;exitDy=0;entryX=0;entryY=0.5;entryDx=0;entryDy=0;curved=1;fillColor=#dae8fc;strokeColor=#6c8ebf;" edge="1" parent="1" source="5WrMtEPQ9WSay22F0Exm-6">
          <mxGeometry relative="1" as="geometry">
            <mxPoint x="265" y="295.0000000000001" as="targetPoint" />
          </mxGeometry>
        </mxCell>
        <mxCell id="5WrMtEPQ9WSay22F0Exm-8" style="edgeStyle=orthogonalEdgeStyle;rounded=0;orthogonalLoop=1;jettySize=auto;html=1;exitX=1;exitY=0.5;exitDx=0;exitDy=0;entryX=0;entryY=0.5;entryDx=0;entryDy=0;curved=1;fillColor=#f8cecc;strokeColor=#b85450;" edge="1" parent="1" target="5WrMtEPQ9WSay22F0Exm-5">
          <mxGeometry relative="1" as="geometry">
            <mxPoint x="180" y="325.0000000000001" as="sourcePoint" />
          </mxGeometry>
        </mxCell>
        <mxCell id="5WrMtEPQ9WSay22F0Exm-12" value="Акторы" style="shape=umlFrame;whiteSpace=wrap;html=1;pointerEvents=0;" vertex="1" parent="1">
          <mxGeometry x="50" y="100" width="150" height="180" as="geometry" />
        </mxCell>
        <mxCell id="5WrMtEPQ9WSay22F0Exm-13" value="Kolobok" style="shape=umlFrame;whiteSpace=wrap;html=1;pointerEvents=0;" vertex="1" parent="1">
          <mxGeometry x="250" y="100" width="140" height="180" as="geometry" />
        </mxCell>
        <mxCell id="5WrMtEPQ9WSay22F0Exm-17" style="edgeStyle=orthogonalEdgeStyle;rounded=0;orthogonalLoop=1;jettySize=auto;html=1;exitX=1;exitY=0.5;exitDx=0;exitDy=0;entryX=0;entryY=0.5;entryDx=0;entryDy=0;fillColor=#d5e8d4;strokeColor=#82b366;" edge="1" parent="1" source="5WrMtEPQ9WSay22F0Exm-14" target="5WrMtEPQ9WSay22F0Exm-16">
          <mxGeometry relative="1" as="geometry" />
        </mxCell>
        <mxCell id="5WrMtEPQ9WSay22F0Exm-14" value="Разработчик" style="html=1;whiteSpace=wrap;fillColor=#d5e8d4;strokeColor=#82b366;" vertex="1" parent="1">
          <mxGeometry x="70" y="210" width="110" height="50" as="geometry" />
        </mxCell>
        <mxCell id="5WrMtEPQ9WSay22F0Exm-16" value="Палучат дэнги" style="html=1;whiteSpace=wrap;" vertex="1" parent="1">
          <mxGeometry x="265" y="210" width="110" height="50" as="geometry" />
        </mxCell>
      </root>
    </mxGraphModel>
  </diagram>
</mxfile>
